<svg xmlns="http://www.w3.org/2000/svg">
<symbol id="sendmail" viewBox="0 0 25 24">
<g>
<path d="M7.89999 6.31991L16.39 3.48991C20.2 2.21991 22.27 4.29991 21.01 8.10991L18.18 16.5999C16.28 22.3099 13.16 22.3099 11.26 16.5999L10.42 14.0799L7.89999 13.2399C2.18999 11.3399 2.18999 8.22991 7.89999 6.31991Z" stroke="white" stroke-width="1.5" stroke-linecap="round" stroke-linejoin="round"/>
<path d="M10.61 13.6501L14.19 10.0601" stroke="white" stroke-width="1.5" stroke-linecap="round" stroke-linejoin="round"/>

</g>
</symbol>
<symbol id="headphones" viewBox="0 0 46 45">
<g>
<path d="M10.7375 34.6688V29.1937C10.7375 27.375 12.1625 25.7437 14.1875 25.7437C16.0063 25.7437 17.6375 27.1687 17.6375 29.1937V34.4625C17.6375 38.1187 14.6 41.1563 10.9438 41.1563C7.2875 41.1563 4.25 38.1 4.25 34.4625V22.9125C4.04375 12.375 12.3688 3.84375 22.9063 3.84375C33.4437 3.84375 41.75 12.375 41.75 22.7062V34.2563C41.75 37.9125 38.7125 40.95 35.0563 40.95C31.4 40.95 28.3625 37.9125 28.3625 34.2563V28.9875C28.3625 27.1687 29.7875 25.5375 31.8125 25.5375C33.6313 25.5375 35.2625 26.9625 35.2625 28.9875V34.6688" stroke="#EDA415" stroke-width="2.5" stroke-linecap="round" stroke-linejoin="round"/>

</g>
</symbol>
<symbol id="liststyle" width="11" height="11" viewBox="0 0 11 11" fill="none">
<g>
<circle cx="5.5" cy="5.5" r="5" fill="#D9D9D9"/>

</g>
</symbol>


</svg>
