<?xml version="1.0" encoding="UTF-8" standalone="no"?>
<svg 
   width="21.5"
   height="21.5"
   viewBox="0 0 21.5 21.5"
   fill="red"
   version="1.1"
   id="track-order"
   sodipodi:docname="track-order.svg"
   inkscape:version="1.2.2 (732a01da63, 2022-12-09)"
   xmlns:inkscape="http://www.inkscape.org/namespaces/inkscape"
   xmlns:sodipodi="http://sodipodi.sourceforge.net/DTD/sodipodi-0.dtd"
   xmlns="http://www.w3.org/2000/svg"
   xmlns:svg="http://www.w3.org/2000/svg">
  <defs
     id="defs215" />
  <sodipodi:namedview
     id="namedview213"
     pagecolor="#ffffff"
     bordercolor="#000000"
     borderopacity="0.25"
     inkscape:showpageshadow="2"
     inkscape:pageopacity="0.0"
     inkscape:pagecheckerboard="0"
     inkscape:deskcolor="#d1d1d1"
     showgrid="false"
     inkscape:zoom="34.875"
     inkscape:cx="6.265233"
     inkscape:cy="14.078853"
     inkscape:window-width="1920"
     inkscape:window-height="1017"
     inkscape:window-x="-8"
     inkscape:window-y="-8"
     inkscape:window-maximized="1"
     inkscape:current-layer="svg211" />
  <path
     d="m 13.75,0.75 v 10 c 0,1.1 -0.9,2 -2,2 h -11 v -8 c 0,-2.21 1.79,-4 4,-4 z"
     stroke="#292d32"
     stroke-width="1.5"
     stroke-linecap="round"
     stroke-linejoin="round"
     id="path201" />
  <path
     d="m 20.75,12.75 v 3 c 0,1.66 -1.34,3 -3,3 h -1 c 0,-1.1 -0.9,-2 -2,-2 -1.1,0 -2,0.9 -2,2 h -4 c 0,-1.1 -0.9,-2 -2,-2 -1.1,0 -2,0.9 -2,2 h -1 c -1.66,0 -3,-1.34 -3,-3 v -3 h 11 c 1.1,0 2,-0.9 2,-2 v -7 h 1.84 c 0.72,0 1.38,0.39001 1.74,1.01001 L 19.04,7.75 h -1.29 c -0.55,0 -1,0.45 -1,1 v 3 c 0,0.55 0.45,1 1,1 z"
     stroke="#292d32"
     stroke-width="1.5"
     stroke-linecap="round"
     stroke-linejoin="round"
     id="path203" />
  <path
     d="m 6.75,20.75 c 1.10457,0 2,-0.8954 2,-2 0,-1.1046 -0.89543,-2 -2,-2 -1.10457,0 -2,0.8954 -2,2 0,1.1046 0.89543,2 2,2 z"
     stroke="#292d32"
     stroke-width="1.5"
     stroke-linecap="round"
     stroke-linejoin="round"
     id="path205" />
  <path
     d="m 14.75,20.75 c 1.1046,0 2,-0.8954 2,-2 0,-1.1046 -0.8954,-2 -2,-2 -1.1046,0 -2,0.8954 -2,2 0,1.1046 0.8954,2 2,2 z"
     stroke="#292d32"
     stroke-width="1.5"
     stroke-linecap="round"
     stroke-linejoin="round"
     id="path207" />
  <path
     d="m 20.75,10.75 v 2 h -3 c -0.55,0 -1,-0.45 -1,-1 v -3 c 0,-0.55 0.45,-1 1,-1 h 1.29 z"
     stroke="#292d32"
     stroke-width="1.5"
     stroke-linecap="round"
     stroke-linejoin="round"
     id="path209" />
</svg>
